<svg width="9" height="16" viewBox="0 0 9 16" fill="none" xmlns="http://www.w3.org/2000/svg">
<path d="M6.99927 7.36011C6.44698 7.36011 5.99927 7.80782 5.99927 8.36011C5.99927 8.91239 6.44698 9.36011 6.99927 9.36011V7.36011ZM8.43365 9.06721C8.82417 8.67669 8.82417 8.04352 8.43365 7.653L2.06969 1.28904C1.67916 0.898515 1.046 0.898515 0.655473 1.28904C0.264948 1.67956 0.264948 2.31273 0.655473 2.70325L6.31233 8.36011L0.655473 14.017C0.264948 14.4075 0.264948 15.0407 0.655473 15.4312C1.046 15.8217 1.67916 15.8217 2.06969 15.4312L8.43365 9.06721ZM6.99927 9.36011H7.72654V7.36011H6.99927V9.36011Z" fill="white"/>
</svg>
