<svg width="9" height="16" viewBox="0 0 9 16" fill="none" xmlns="http://www.w3.org/2000/svg">
<path d="M1.72656 9.36011C2.27885 9.36011 2.72656 8.91239 2.72656 8.36011C2.72656 7.80782 2.27885 7.36011 1.72656 7.36011L1.72656 9.36011ZM0.292183 7.653C-0.0983416 8.04352 -0.0983416 8.67669 0.292183 9.06721L6.65614 15.4312C7.04667 15.8217 7.67983 15.8217 8.07036 15.4312C8.46088 15.0407 8.46088 14.4075 8.07036 14.017L2.4135 8.36011L8.07036 2.70325C8.46088 2.31273 8.46088 1.67956 8.07036 1.28904C7.67983 0.898515 7.04667 0.898515 6.65614 1.28904L0.292183 7.653ZM1.72656 7.36011H0.99929L0.99929 9.36011H1.72656L1.72656 7.36011Z" fill="white"/>
</svg>
