<svg width="32" height="32" viewBox="0 0 32 32" fill="none" xmlns="http://www.w3.org/2000/svg">
<path d="M30.1187 16.8813C30.6812 17.4438 31 18.2062 31 19C31 19.7938 30.6812 20.5562 30.1187 21.1187C29.5562 21.6812 28.7938 22 28 22H4C3.20438 22 2.44125 21.6812 1.87875 21.1187C1.31625 20.5562 1 19.7938 1 19C1 18.2062 1.31625 17.4438 1.87875 16.8813C2.44125 16.3188 3.20438 16 4 16H28C28.7938 16 29.5562 16.3188 30.1187 16.8813ZM29.7062 24.2938C29.8937 24.4813 30 24.7375 30 25V26C30 27.0063 29.5812 28.0812 28.8312 28.8312C28.0812 29.5812 27.0063 30 26 30H6C4.93937 30 3.92188 29.5812 3.17188 28.8312C2.42125 28.0812 2 27.0063 2 26V25C2 24.7375 2.10562 24.4813 2.29312 24.2938C2.48062 24.1063 2.735 24 3 24H29C29.2625 24 29.5187 24.1063 29.7062 24.2938ZM3.14937 13.8C2.87063 13.6625 2.62688 13.4688 2.43563 13.225C2.24438 12.9813 2.11188 12.7 2.04688 12.4C1.98188 12.0938 1.9875 11.7812 2.06188 11.4812C3.43625 6.06375 9.15625 2 16 2C22.8438 2 28.5625 6.06375 29.9375 11.4812C30.0125 11.7812 30.0188 12.0938 29.95 12.4C29.8875 12.7 29.7563 12.9813 29.5625 13.225C29.3188 13.4688 29.1313 13.6625 28.85 13.8C28.575 13.9313 28.2687 14 27.9562 14H4.04187C3.73312 14 3.4275 13.9313 3.14937 13.8ZM23.2938 7.29375C23.1063 7.48125 23 7.7375 23 8C23 8.2 23.0563 8.39375 23.1688 8.55625C23.2812 8.71875 23.3813 8.85 23.6187 8.925C23.8 8.94375 24 9.01875 24.1938 8.98125C24.3875 8.94375 24.5687 8.85 24.7062 8.70625C24.85 8.56875 24.9438 8.3875 24.9813 8.19375C25.0188 8 24.9437 7.8 24.925 7.61875C24.85 7.38125 24.7188 7.28125 24.5562 7.16875C24.3937 7.05625 24.2 6.94375 24 6.94375C23.7375 6.94375 23.4813 7.10625 23.2938 7.29375ZM15.2937 5.29313C15.1062 5.48063 15 5.735 15 6C15 6.1975 15.0562 6.39375 15.1687 6.55625C15.2812 6.71875 15.3812 6.85 15.6187 6.925C15.8 6.94375 16 7.01875 16.1938 6.98125C16.3875 6.94375 16.5687 6.85 16.7062 6.70625C16.85 6.56875 16.9438 6.3875 16.9813 6.195C17.0188 6.00125 16.9437 5.8 16.925 5.6175C16.85 5.43437 16.7188 5.27812 16.5562 5.16875C16.3937 5.05875 16.2 4.94375 16 4.94375C15.7375 4.94375 15.4812 5.10563 15.2937 5.29313ZM7.29375 7.29375C7.10625 7.48125 7 7.7375 7 8C7 8.2 7.05625 8.39375 7.16875 8.55625C7.28125 8.71875 7.38125 8.85 7.61875 8.925C7.8 8.94375 8 9.01875 8.19375 8.98125C8.3875 8.94375 8.56875 8.85 8.70625 8.70625C8.85 8.56875 8.94375 8.3875 8.98125 8.19375C9.01875 8 8.94375 7.8 8.925 7.61875C8.85 7.38125 8.71875 7.28125 8.55625 7.16875C8.39375 7.05625 8.2 6.94375 8 6.94375C7.7375 6.94375 7.48125 7.10625 7.29375 7.29375Z" fill="#6368E2"/>
</svg>
