<svg width="20" height="20" viewBox="0 0 20 20" fill="none" xmlns="http://www.w3.org/2000/svg">
<g clip-path="url(#clip0_522_308)">
<path d="M7.5 0.347385C7.62202 0.49565 7.69677 0.6771 7.71459 0.868288C7.73242 1.05948 7.6925 1.25162 7.6 1.41988C6.87732 2.74673 6.49992 4.234 6.5025 5.74488C6.5025 10.7711 10.6 14.8411 15.65 14.8411C16.3088 14.8411 16.95 14.7724 17.5662 14.6411C17.7552 14.6002 17.9519 14.6159 18.132 14.6861C18.3121 14.7564 18.4675 14.8781 18.5788 15.0361C18.6962 15.2004 18.7561 15.399 18.7491 15.6008C18.7421 15.8027 18.6686 15.9966 18.54 16.1524C17.5596 17.3567 16.3228 18.327 14.9198 18.9926C13.5168 19.6582 11.9829 20.0023 10.43 19.9999C4.6675 19.9999 0 15.3574 0 9.63738C0 5.33238 2.6425 1.63988 6.405 0.0748848C6.59242 -0.00432534 6.80049 -0.0205829 6.99794 0.0285544C7.19539 0.0776917 7.37156 0.189571 7.5 0.347385Z" fill="white"/>
<path d="M13.4925 3.9352C13.5104 3.88107 13.545 3.83397 13.5912 3.80058C13.6374 3.76719 13.693 3.74922 13.75 3.74922C13.807 3.74922 13.8626 3.76719 13.9088 3.80058C13.9551 3.83397 13.9896 3.88107 14.0075 3.9352L14.4913 5.3877C14.7075 6.0352 15.215 6.5427 15.8625 6.75895L17.315 7.2427C17.3691 7.26063 17.4162 7.29516 17.4496 7.34138C17.483 7.38761 17.501 7.44318 17.501 7.5002C17.501 7.55723 17.483 7.6128 17.4496 7.65902C17.4162 7.70525 17.3691 7.73978 17.315 7.7577L15.8625 8.24145C15.5432 8.34785 15.253 8.52716 15.015 8.76517C14.777 9.00318 14.5977 9.29336 14.4913 9.6127L14.0075 11.0652C13.9896 11.1193 13.9551 11.1664 13.9088 11.1998C13.8626 11.2332 13.807 11.2512 13.75 11.2512C13.693 11.2512 13.6374 11.2332 13.5912 11.1998C13.545 11.1664 13.5104 11.1193 13.4925 11.0652L13.0088 9.6127C12.9024 9.29336 12.7231 9.00318 12.485 8.76517C12.247 8.52716 11.9569 8.34785 11.6375 8.24145L10.185 7.7577C10.1309 7.73978 10.0838 7.70525 10.0504 7.65902C10.017 7.6128 9.99902 7.55723 9.99902 7.5002C9.99902 7.44318 10.017 7.38761 10.0504 7.34138C10.0838 7.29516 10.1309 7.26063 10.185 7.2427L11.6375 6.75895C11.9569 6.65256 12.247 6.47325 12.485 6.23524C12.7231 5.99722 12.9024 5.70705 13.0088 5.3877L13.4925 3.9352ZM17.3288 0.123953C17.3411 0.0883614 17.3642 0.0574984 17.3949 0.0356555C17.4256 0.0138126 17.4623 0.0020752 17.5 0.0020752C17.5377 0.0020752 17.5744 0.0138126 17.6051 0.0356555C17.6358 0.0574984 17.6589 0.0883614 17.6713 0.123953L17.9938 1.09145C18.1375 1.52395 18.4763 1.8627 18.9088 2.00645L19.8763 2.32895C19.9118 2.34129 19.9427 2.36442 19.9646 2.39511C19.9864 2.4258 19.9981 2.46253 19.9981 2.5002C19.9981 2.53787 19.9864 2.57461 19.9646 2.6053C19.9427 2.63599 19.9118 2.65911 19.8763 2.67145L18.9088 2.99395C18.6956 3.06486 18.5019 3.18447 18.3431 3.34331C18.1843 3.50214 18.0647 3.69581 17.9938 3.90895L17.6713 4.87645C17.6589 4.91205 17.6358 4.94291 17.6051 4.96475C17.5744 4.98659 17.5377 4.99833 17.5 4.99833C17.4623 4.99833 17.4256 4.98659 17.3949 4.96475C17.3642 4.94291 17.3411 4.91205 17.3288 4.87645L17.0063 3.90895C16.9354 3.69581 16.8157 3.50214 16.6569 3.34331C16.4981 3.18447 16.3044 3.06486 16.0913 2.99395L15.1238 2.67145C15.0882 2.65911 15.0573 2.63599 15.0355 2.6053C15.0136 2.57461 15.0019 2.53787 15.0019 2.5002C15.0019 2.46253 15.0136 2.4258 15.0355 2.39511C15.0573 2.36442 15.0882 2.34129 15.1238 2.32895L16.0913 2.00645C16.5238 1.8627 16.8625 1.52395 17.0063 1.09145L17.3288 0.125203V0.123953Z" fill="white"/>
</g>
<defs>
<clipPath id="clip0_522_308">
<rect width="20" height="20" fill="white"/>
</clipPath>
</defs>
</svg>
