<svg width="20" height="20" viewBox="0 0 20 20" fill="none" xmlns="http://www.w3.org/2000/svg">
<path d="M10 20C8.63333 20 7.34167 19.7373 6.125 19.212C4.90833 18.6867 3.84567 17.97 2.937 17.062C2.029 16.154 1.31233 15.0917 0.787001 13.875C0.261668 12.6583 -0.000665399 11.3667 1.26743e-06 10C1.26743e-06 8.61667 0.262668 7.32067 0.788001 6.112C1.31333 4.90333 2.03 3.84533 2.938 2.938C3.846 2.02933 4.908 1.31267 6.124 0.788C7.34 0.263333 8.632 0.000666667 10 0C11.3833 0 12.6793 0.262667 13.888 0.788C15.0967 1.31333 16.1547 2.03 17.062 2.938C17.9707 3.846 18.6873 4.90433 19.212 6.113C19.7367 7.32167 19.9993 8.61733 20 10V11.45C20 12.4333 19.6627 13.271 18.988 13.963C18.3133 14.655 17.484 15.0007 16.5 15C15.9 15 15.3417 14.8667 14.825 14.6C14.3083 14.3333 13.8833 13.9833 13.55 13.55C13.1 14 12.5707 14.3543 11.962 14.613C11.3533 14.8717 10.6993 15.0007 10 15C8.61667 15 7.43733 14.5123 6.462 13.537C5.48667 12.5617 4.99933 11.3827 5 10C5 8.61667 5.48767 7.43733 6.463 6.462C7.43834 5.48667 8.61733 4.99933 10 5C11.3833 5 12.5627 5.48767 13.538 6.463C14.5133 7.43833 15.0007 8.61733 15 10V11.45C15 11.9333 15.15 12.3123 15.45 12.587C15.75 12.8617 16.1 12.9993 16.5 13C16.9 13 17.25 12.8623 17.55 12.587C17.85 12.3117 18 11.9327 18 11.45V10C18 7.81667 17.2123 5.93733 15.637 4.362C14.0617 2.78667 12.1827 1.99933 10 2C7.81667 2 5.93733 2.78767 4.362 4.363C2.78667 5.93833 1.99933 7.81733 2 10C2 12.1833 2.78767 14.0627 4.363 15.638C5.93833 17.2133 7.81733 18.0007 10 18H15V20H10ZM10 13C10.8333 13 11.5417 12.7083 12.125 12.125C12.7083 11.5417 13 10.8333 13 10C13 9.16667 12.7083 8.45833 12.125 7.875C11.5417 7.29167 10.8333 7 10 7C9.16667 7 8.45833 7.29167 7.875 7.875C7.29167 8.45833 7 9.16667 7 10C7 10.8333 7.29167 11.5417 7.875 12.125C8.45833 12.7083 9.16667 13 10 13Z" fill="white"/>
</svg>
