<svg width="21" height="11" viewBox="0 0 21 11" fill="none" xmlns="http://www.w3.org/2000/svg">
<path d="M5.58354 10.1918C4.5736 10.1918 3.70428 9.98722 2.97559 9.57812C2.25115 9.16477 1.69292 8.58097 1.30087 7.8267C0.908825 7.06818 0.712802 6.17116 0.712802 5.13565C0.712802 4.12571 0.908825 3.23935 1.30087 2.47656C1.69292 1.71378 2.24476 1.11932 2.95641 0.693181C3.67232 0.267045 4.51181 0.0539774 5.47488 0.0539774C6.1226 0.0539774 6.72559 0.158381 7.28382 0.367188C7.84632 0.571733 8.33638 0.880682 8.754 1.29403C9.17587 1.70739 9.504 2.22727 9.73837 2.85369C9.97275 3.47585 10.0899 4.20455 10.0899 5.03977V5.78764H1.79945V4.10014H7.52672C7.52672 3.7081 7.4415 3.3608 7.27104 3.05824C7.10059 2.75568 6.86408 2.51918 6.56152 2.34872C6.26323 2.17401 5.91593 2.08665 5.51962 2.08665C5.10627 2.08665 4.73979 2.18253 4.42019 2.37429C4.10485 2.56179 3.85769 2.81534 3.67871 3.13494C3.49973 3.45028 3.40811 3.80185 3.40385 4.18963V5.79403C3.40385 6.27983 3.49334 6.69957 3.67232 7.05327C3.85556 7.40696 4.11337 7.67969 4.44576 7.87145C4.77814 8.06321 5.17232 8.15909 5.62828 8.15909C5.93084 8.15909 6.20783 8.11648 6.45925 8.03125C6.71067 7.94602 6.92587 7.81818 7.10485 7.64773C7.28382 7.47727 7.42019 7.26847 7.51394 7.02131L10.0324 7.1875C9.90456 7.79261 9.64249 8.32102 9.24618 8.77273C8.85414 9.22017 8.34703 9.5696 7.72488 9.82102C7.10698 10.0682 6.3932 10.1918 5.58354 10.1918ZM14.5899 4.32386V10H11.8669V0.181818H14.4621V1.91406H14.5771C14.7945 1.34304 15.1588 0.891335 15.6702 0.558948C16.1816 0.222301 16.8016 0.0539774 17.5303 0.0539774C18.2121 0.0539774 18.8066 0.203125 19.3137 0.50142C19.8208 0.799716 20.2149 1.22585 20.4962 1.77983C20.7774 2.32955 20.9181 2.9858 20.9181 3.74858V10H18.195V4.23438C18.1993 3.63352 18.0459 3.16477 17.7348 2.82812C17.4237 2.48722 16.9955 2.31676 16.45 2.31676C16.0835 2.31676 15.7597 2.3956 15.4784 2.55327C15.2014 2.71094 14.9841 2.94105 14.8264 3.24361C14.673 3.5419 14.5942 3.90199 14.5899 4.32386Z" fill="white"/>
</svg>
