<svg width="32" height="32" viewBox="0 0 32 32" fill="none" xmlns="http://www.w3.org/2000/svg">
<g clip-path="url(#clip0_522_540)">
<path d="M5.02856 9.79259C5.02856 7.41392 6.84061 5.48572 9.0756 5.48572H23.1699C25.4052 5.48572 27.2173 7.41392 27.2173 9.79259C27.2173 12.1713 25.4052 14.0995 23.1699 14.0995H9.0756C6.84023 14.0995 5.02856 12.1713 5.02856 9.79259Z" stroke="#6368E2" stroke-width="2"/>
<path d="M27.16 17.0408H9.41735C7.03779 17.0408 5.10854 19.0937 5.10854 21.6262V21.7969C5.10854 24.3917 7.08521 26.4951 9.52376 26.4951H27.16H25.6302" stroke="#6368E2" stroke-width="2"/>
<path d="M22.9561 14.5632L20.0822 9.9425" stroke="#6368E2" stroke-width="2"/>
<path d="M0.914291 5.9143C0.914291 3.15288 3.15287 0.914307 5.91429 0.914307H26.0857C28.8472 0.914307 31.0857 3.15288 31.0857 5.91431V26.0857C31.0857 28.8472 28.8472 31.0857 26.0857 31.0857H5.91429C3.15286 31.0857 0.914291 28.8472 0.914291 26.0857V5.9143Z" stroke="#6368E2"/>
</g>
<defs>
<clipPath id="clip0_522_540">
<rect width="32" height="32" fill="white"/>
</clipPath>
</defs>
</svg>
