<svg width="16" height="16" viewBox="0 0 16 16" fill="none" xmlns="http://www.w3.org/2000/svg">
<path d="M7.99997 14.668C4.3173 14.668 1.33197 11.6826 1.33197 7.99997C1.33197 4.31797 4.3173 1.3333 7.99997 1.3333C11.6826 1.33263 14.668 4.31797 14.668 7.99997C14.668 11.6826 11.6826 14.668 7.99997 14.668ZM7.99997 13.668C8.74943 13.6761 9.49306 13.5355 10.1878 13.2543C10.8826 12.9731 11.5147 12.557 12.0475 12.0299C12.5804 11.5028 13.0034 10.8752 13.2921 10.1835C13.5808 9.49187 13.7294 8.74981 13.7294 8.0003C13.7294 7.2508 13.5808 6.50873 13.2921 5.81706C13.0034 5.12539 12.5804 4.49784 12.0475 3.97075C11.5147 3.44365 10.8826 3.02746 10.1878 2.74628C9.49306 2.4651 8.74943 2.32451 7.99997 2.33263C6.50746 2.34882 5.08157 2.95308 4.03188 4.01421C2.98219 5.07535 2.39344 6.5077 2.39344 8.0003C2.39344 9.4929 2.98219 10.9253 4.03188 11.9864C5.08157 13.0475 6.50746 13.6518 7.99997 13.668ZM10.3586 6.14464C10.078 5.78745 9.71986 5.49878 9.31122 5.30047C8.90258 5.10216 8.45419 4.9994 7.99997 4.99997C7.54624 4.99941 7.09833 5.10199 6.69006 5.29994C6.2818 5.4979 5.92386 5.78605 5.6433 6.14264C5.60259 6.19416 5.55213 6.23716 5.4948 6.26918C5.43748 6.3012 5.3744 6.32161 5.30919 6.32926C5.24397 6.3369 5.17788 6.33163 5.11471 6.31374C5.05153 6.29584 4.99249 6.26568 4.94097 6.22497C4.88945 6.18426 4.84645 6.1338 4.81443 6.07647C4.7824 6.01915 4.76199 5.95607 4.75434 5.89085C4.7467 5.82564 4.75197 5.75955 4.76987 5.69637C4.78776 5.63319 4.81792 5.57416 4.85863 5.52264C5.23281 5.04758 5.70997 4.66369 6.25414 4.39993C6.7983 4.13616 7.39525 3.9994 7.99997 3.99997C8.60546 3.99948 9.20315 4.13666 9.74783 4.40114C10.2925 4.66563 10.7699 5.05049 11.144 5.52664C11.1863 5.57802 11.218 5.63735 11.2372 5.70115C11.2563 5.76495 11.2625 5.83192 11.2554 5.89815C11.2483 5.96437 11.228 6.02851 11.1958 6.08679C11.1635 6.14507 11.12 6.19633 11.0677 6.23754C11.0153 6.27876 10.9553 6.30911 10.8911 6.32681C10.8269 6.3445 10.7598 6.34919 10.6937 6.3406C10.6277 6.33201 10.564 6.3103 10.5065 6.27677C10.4489 6.24323 10.3987 6.19853 10.3586 6.1453V6.14464ZM9.99997 10.1666C9.88859 10.1698 9.77772 10.1506 9.6739 10.1101C9.57008 10.0697 9.47543 10.0088 9.39554 9.93117C9.31565 9.8535 9.25214 9.76061 9.20878 9.65797C9.16541 9.55534 9.14307 9.44505 9.14307 9.33364C9.14307 9.22222 9.16541 9.11193 9.20878 9.0093C9.25214 8.90666 9.31565 8.81377 9.39554 8.73611C9.47543 8.65844 9.57008 8.59759 9.6739 8.55714C9.77772 8.5167 9.88859 8.49748 9.99997 8.50064C10.2168 8.50677 10.4227 8.59722 10.5739 8.75277C10.7251 8.90832 10.8097 9.1167 10.8097 9.33364C10.8097 9.55057 10.7251 9.75895 10.5739 9.9145C10.4227 10.07 10.2168 10.1605 9.99997 10.1666ZM5.99997 10.1666C5.88859 10.1698 5.77772 10.1506 5.6739 10.1101C5.57008 10.0697 5.47543 10.0088 5.39554 9.93117C5.31565 9.8535 5.25214 9.76061 5.20877 9.65797C5.16541 9.55534 5.14307 9.44505 5.14307 9.33364C5.14307 9.22222 5.16541 9.11193 5.20877 9.0093C5.25214 8.90666 5.31565 8.81377 5.39554 8.73611C5.47543 8.65844 5.57008 8.59759 5.6739 8.55714C5.77772 8.5167 5.88859 8.49748 5.99997 8.50064C6.21681 8.50677 6.42272 8.59722 6.57393 8.75277C6.72514 8.90832 6.80973 9.1167 6.80973 9.33364C6.80973 9.55057 6.72514 9.75895 6.57393 9.9145C6.42272 10.07 6.21681 10.1605 5.99997 10.1666Z" fill="white"/>
</svg>
