<svg width="16" height="16" viewBox="0 0 16 16" fill="none" xmlns="http://www.w3.org/2000/svg">
<path d="M4 5.16667C4 4.85725 4.12292 4.5605 4.34171 4.34171C4.5605 4.12292 4.85725 4 5.16667 4H6.5C6.80942 4 7.10617 4.12292 7.32496 4.34171C7.54375 4.5605 7.66667 4.85725 7.66667 5.16667V6.5C7.66667 6.80942 7.54375 7.10617 7.32496 7.32496C7.10617 7.54375 6.80942 7.66667 6.5 7.66667H5.16667C4.85725 7.66667 4.5605 7.54375 4.34171 7.32496C4.12292 7.10617 4 6.80942 4 6.5V5.16667ZM5.16667 4.83333C5.07826 4.83333 4.99348 4.86845 4.93096 4.93096C4.86845 4.99348 4.83333 5.07826 4.83333 5.16667V6.5C4.83333 6.58841 4.86845 6.67319 4.93096 6.7357C4.99348 6.79821 5.07826 6.83333 5.16667 6.83333H6.5C6.58841 6.83333 6.67319 6.79821 6.7357 6.7357C6.79821 6.67319 6.83333 6.58841 6.83333 6.5V5.16667C6.83333 5.07826 6.79821 4.99348 6.7357 4.93096C6.67319 4.86845 6.58841 4.83333 6.5 4.83333H5.16667ZM5.16667 8.33333C4.85725 8.33333 4.5605 8.45625 4.34171 8.67504C4.12292 8.89383 4 9.19058 4 9.5V10.8333C4 11.1428 4.12292 11.4395 4.34171 11.6583C4.5605 11.8771 4.85725 12 5.16667 12H6.5C6.80942 12 7.10617 11.8771 7.32496 11.6583C7.54375 11.4395 7.66667 11.1428 7.66667 10.8333V9.5C7.66667 9.19058 7.54375 8.89383 7.32496 8.67504C7.10617 8.45625 6.80942 8.33333 6.5 8.33333H5.16667ZM4.83333 9.5C4.83333 9.41159 4.86845 9.32681 4.93096 9.2643C4.99348 9.20179 5.07826 9.16667 5.16667 9.16667H6.5C6.58841 9.16667 6.67319 9.20179 6.7357 9.2643C6.79821 9.32681 6.83333 9.41159 6.83333 9.5V10.8333C6.83333 10.9217 6.79821 11.0065 6.7357 11.069C6.67319 11.1315 6.58841 11.1667 6.5 11.1667H5.16667C5.07826 11.1667 4.99348 11.1315 4.93096 11.069C4.86845 11.0065 4.83333 10.9217 4.83333 10.8333V9.5ZM8.33333 5.16667C8.33333 4.85725 8.45625 4.5605 8.67504 4.34171C8.89383 4.12292 9.19058 4 9.5 4H10.8333C11.1428 4 11.4395 4.12292 11.6583 4.34171C11.8771 4.5605 12 4.85725 12 5.16667V6.5C12 6.80942 11.8771 7.10617 11.6583 7.32496C11.4395 7.54375 11.1428 7.66667 10.8333 7.66667H9.5C9.19058 7.66667 8.89383 7.54375 8.67504 7.32496C8.45625 7.10617 8.33333 6.80942 8.33333 6.5V5.16667ZM9.5 4.83333C9.41159 4.83333 9.32681 4.86845 9.2643 4.93096C9.20179 4.99348 9.16667 5.07826 9.16667 5.16667V6.5C9.16667 6.58841 9.20179 6.67319 9.2643 6.7357C9.32681 6.79821 9.41159 6.83333 9.5 6.83333H10.8333C10.9217 6.83333 11.0065 6.79821 11.069 6.7357C11.1315 6.67319 11.1667 6.58841 11.1667 6.5V5.16667C11.1667 5.07826 11.1315 4.99348 11.069 4.93096C11.0065 4.86845 10.9217 4.83333 10.8333 4.83333H9.5ZM9.5 8.33333C9.19058 8.33333 8.89383 8.45625 8.67504 8.67504C8.45625 8.89383 8.33333 9.19058 8.33333 9.5V10.8333C8.33333 11.1428 8.45625 11.4395 8.67504 11.6583C8.89383 11.8771 9.19058 12 9.5 12H10.8333C11.1428 12 11.4395 11.8771 11.6583 11.6583C11.8771 11.4395 12 11.1428 12 10.8333V9.5C12 9.19058 11.8771 8.89383 11.6583 8.67504C11.4395 8.45625 11.1428 8.33333 10.8333 8.33333H9.5ZM9.16667 9.5C9.16667 9.41159 9.20179 9.32681 9.2643 9.2643C9.32681 9.20179 9.41159 9.16667 9.5 9.16667H10.8333C10.9217 9.16667 11.0065 9.20179 11.069 9.2643C11.1315 9.32681 11.1667 9.41159 11.1667 9.5V10.8333C11.1667 10.9217 11.1315 11.0065 11.069 11.069C11.0065 11.1315 10.9217 11.1667 10.8333 11.1667H9.5C9.41159 11.1667 9.32681 11.1315 9.2643 11.069C9.20179 11.0065 9.16667 10.9217 9.16667 10.8333V9.5ZM2 4.08333C2 3.5308 2.21949 3.0009 2.61019 2.61019C3.0009 2.21949 3.5308 2 4.08333 2H11.9167C12.4692 2 12.9991 2.21949 13.3898 2.61019C13.7805 3.0009 14 3.5308 14 4.08333V11.9167C14 12.4692 13.7805 12.9991 13.3898 13.3898C12.9991 13.7805 12.4692 14 11.9167 14H4.08333C3.5308 14 3.0009 13.7805 2.61019 13.3898C2.21949 12.9991 2 12.4692 2 11.9167V4.08333ZM4.08333 2.83333C3.75181 2.83333 3.43387 2.96503 3.19945 3.19945C2.96503 3.43387 2.83333 3.75181 2.83333 4.08333V11.9167C2.83333 12.2482 2.96503 12.5661 3.19945 12.8006C3.43387 13.035 3.75181 13.1667 4.08333 13.1667H11.9167C12.2482 13.1667 12.5661 13.035 12.8006 12.8006C13.035 12.5661 13.1667 12.2482 13.1667 11.9167V4.08333C13.1667 3.75181 13.035 3.43387 12.8006 3.19945C12.5661 2.96503 12.2482 2.83333 11.9167 2.83333H4.08333Z" fill="white"/>
</svg>
