<svg width="14" height="14" viewBox="0 0 14 14" fill="none" xmlns="http://www.w3.org/2000/svg">
<path d="M6.00831 3.93168C6.04738 3.97381 6.07777 4.02323 6.09775 4.0771C6.11772 4.13098 6.12689 4.18826 6.12472 4.24568C6.12255 4.3031 6.1091 4.35953 6.08512 4.41175C6.06114 4.46397 6.02711 4.51095 5.98498 4.55001L4.28864 6.12501L5.98498 7.70001C6.02711 7.73908 6.06113 7.78607 6.08511 7.83828C6.10908 7.8905 6.12254 7.94693 6.1247 8.00435C6.12687 8.06177 6.11771 8.11905 6.09774 8.17292C6.07777 8.2268 6.04738 8.27622 6.00831 8.31835C5.96924 8.36048 5.92226 8.39451 5.87004 8.41848C5.81782 8.44245 5.76139 8.45591 5.70398 8.45808C5.64656 8.46024 5.58928 8.45108 5.5354 8.43111C5.48152 8.41114 5.43211 8.38075 5.38998 8.34168L3.34831 6.44585C3.30413 6.40489 3.26889 6.35526 3.24479 6.30005C3.22069 6.24484 3.20825 6.18525 3.20825 6.12501C3.20825 6.06478 3.22069 6.00519 3.24479 5.94998C3.26889 5.89477 3.30413 5.84514 3.34831 5.80418L5.38998 3.90835C5.43211 3.86927 5.48152 3.83888 5.5354 3.81891C5.58927 3.79894 5.64656 3.78977 5.70398 3.79194C5.76139 3.7941 5.81782 3.80756 5.87004 3.83154C5.92226 3.85552 5.96924 3.88954 6.00831 3.93168ZM8.01498 4.55001C7.92989 4.47111 7.87962 4.36164 7.87525 4.24568C7.87087 4.12972 7.91274 4.01677 7.99164 3.93168C8.07055 3.84659 8.18002 3.79633 8.29598 3.79195C8.41194 3.78758 8.52489 3.82945 8.60998 3.90835L10.6516 5.80418C10.6958 5.84514 10.7311 5.89477 10.7552 5.94998C10.7793 6.00519 10.7917 6.06478 10.7917 6.12501C10.7917 6.18525 10.7793 6.24484 10.7552 6.30005C10.7311 6.35526 10.6958 6.40489 10.6516 6.44585L8.60998 8.34168C8.52489 8.42058 8.41194 8.46245 8.29598 8.45808C8.18002 8.4537 8.07055 8.40344 7.99164 8.31835C7.91274 8.23326 7.87087 8.12031 7.87525 8.00435C7.87962 7.88839 7.92989 7.77892 8.01498 7.70001L9.71131 6.12501L8.01498 4.55001Z" fill="white"/>
<path fill-rule="evenodd" clip-rule="evenodd" d="M0.875 2.47921C0.875 1.91571 1.33233 1.45837 1.89583 1.45837H12.1042C12.6677 1.45837 13.125 1.91571 13.125 2.47921V9.77087C13.125 10.0416 13.0174 10.3013 12.826 10.4927C12.6346 10.6842 12.3749 10.7917 12.1042 10.7917H6.45167L4.36742 12.876C4.24855 12.9948 4.09714 13.0757 3.93231 13.1084C3.76748 13.1412 3.59664 13.1244 3.44137 13.0601C3.28611 12.9958 3.15339 12.8869 3.06 12.7472C2.9666 12.6074 2.91673 12.4432 2.91667 12.2751V10.7917H1.89583C1.62509 10.7917 1.36544 10.6842 1.174 10.4927C0.982552 10.3013 0.875 10.0416 0.875 9.77087V2.47921ZM1.89583 2.33337C1.85716 2.33337 1.82006 2.34874 1.79271 2.37609C1.76536 2.40344 1.75 2.44053 1.75 2.47921V9.77087C1.75 9.85137 1.81533 9.91671 1.89583 9.91671H3.35417C3.4702 9.91671 3.58148 9.9628 3.66353 10.0448C3.74557 10.1269 3.79167 10.2382 3.79167 10.3542V12.215L5.96167 10.045C6.04363 9.96297 6.15484 9.91681 6.27083 9.91671H12.1042C12.1428 9.91671 12.1799 9.90134 12.2073 9.87399C12.2346 9.84664 12.25 9.80955 12.25 9.77087V2.47921C12.25 2.44053 12.2346 2.40344 12.2073 2.37609C12.1799 2.34874 12.1428 2.33337 12.1042 2.33337H1.89583Z" fill="white"/>
</svg>
