<svg width="16" height="16" viewBox="0 0 16 16" fill="none" xmlns="http://www.w3.org/2000/svg">
<g clip-path="url(#clip0_570_2)">
<path d="M7.02845 15.9401C5.60145 15.7551 4.13245 15.1431 3.06245 14.2866C0.653447 12.3646 -0.440053 9.32806 0.184947 6.31256C0.452947 5.01056 1.15095 3.64056 2.04445 2.65356C2.70264 1.91281 3.49639 1.30473 4.38295 0.862059C5.55995 0.265559 6.68495 -0.00244141 8.01295 -0.00244141C8.96595 -0.00244141 9.73195 0.122559 10.6094 0.422059C11.7622 0.81748 12.8096 1.47087 13.6715 2.33243C14.5335 3.19398 15.1874 4.24096 15.5834 5.39356C16.0524 6.76856 16.1379 8.23206 15.8384 9.68256C15.5989 10.8286 14.9814 12.1176 14.2214 13.0496C13.9089 13.4351 13.1899 14.1226 12.8124 14.4011C11.6831 15.2398 10.3549 15.7702 8.95845 15.9401C8.54695 15.9921 7.42695 15.9896 7.02895 15.9401H7.02845ZM9.20845 15.2711C11.1576 14.9444 12.8972 13.8568 14.0444 12.2476C15.3959 10.3491 15.7579 7.80206 14.9949 5.58106C14.8154 5.06006 14.3699 4.19056 14.0444 3.73206C13.6824 3.21906 12.7864 2.32056 12.2709 1.95856C11.7709 1.60456 10.9194 1.17456 10.3384 0.984559C9.28969 0.636128 8.17605 0.527795 7.0798 0.667563C5.98356 0.80733 4.93272 1.19163 4.00495 1.79206C3.13203 2.36547 2.38586 3.11164 1.81245 3.98456C1.21217 4.91184 0.827946 5.96216 0.688177 7.0579C0.548408 8.15364 0.656664 9.26678 1.00495 10.3151C1.19745 10.8956 1.62745 11.7501 1.97895 12.2501C2.34345 12.7631 3.23945 13.6616 3.75245 14.0236C4.21345 14.3466 5.08045 14.7916 5.60145 14.9741C6.76109 15.368 7.99998 15.47 9.20845 15.2711ZM6.43745 12.5886C6.06362 12.5322 5.70498 12.4011 5.38295 12.2031C5.09395 12.0181 2.91145 9.88006 2.80495 9.67956C2.68245 9.45056 2.89595 9.03356 3.20095 8.90606L3.34395 8.84606L2.90395 8.39806C2.66195 8.15056 2.43245 7.88756 2.39595 7.81456C2.30995 7.64806 2.30745 7.29106 2.38795 7.13206C2.42195 7.06706 2.50245 6.96806 2.56495 6.91306C2.67195 6.82456 2.68195 6.79306 2.67195 6.56906C2.65895 6.37106 2.67695 6.29306 2.76295 6.14456C2.88795 5.93106 3.14595 5.78756 3.39845 5.78506C3.53895 5.78506 3.57545 5.76706 3.63545 5.66256C3.79195 5.38906 4.23945 5.29006 4.58095 5.45706L4.76595 5.54556L4.85695 5.45706C4.98195 5.34256 5.23195 5.24106 5.39595 5.24106C5.72395 5.24106 6.18745 5.61856 6.18745 5.88406C6.18745 6.20156 5.89845 6.25656 5.61195 5.99356C5.42195 5.81656 5.32545 5.79806 5.24745 5.92306C5.20845 5.98306 5.30195 6.09506 5.86195 6.66006C6.42195 7.22256 6.52345 7.34256 6.52345 7.44906C6.51902 7.53069 6.48427 7.60773 6.426 7.66508C6.36773 7.72242 6.29014 7.75594 6.20845 7.75906C6.10695 7.75906 5.94045 7.61306 5.17195 6.84756C4.38795 6.06606 4.24495 5.94106 4.18245 5.98056C4.01295 6.08756 4.07045 6.16556 4.98695 7.08456C5.48445 7.58456 5.89345 8.02706 5.89345 8.06906C5.89345 8.15506 5.81545 8.31406 5.75045 8.35556C5.69713 8.37897 5.63912 8.38976 5.58095 8.38706C5.47395 8.38956 5.30995 8.24106 4.43795 7.37156C3.56295 6.50156 3.40645 6.36106 3.34395 6.40006C3.17195 6.50956 3.22945 6.58506 4.22695 7.58756C4.77145 8.13206 5.22695 8.61906 5.23995 8.67106C5.26845 8.76506 5.20595 8.92906 5.12295 8.98606C5.06787 9.00948 5.00824 9.02025 4.94845 9.01756C4.84145 9.01756 4.70645 8.90056 3.98495 8.17906C3.28945 7.48356 3.12795 7.34056 3.03945 7.34856C2.78945 7.37706 2.87795 7.48906 4.16945 8.78356C5.28945 9.90606 5.43245 10.0651 5.43245 10.1821C5.43358 10.225 5.42391 10.2676 5.40435 10.3058C5.38478 10.3441 5.35594 10.3768 5.32045 10.4011C5.11995 10.5601 5.04195 10.5236 4.53645 10.0341C4.27845 9.78656 4.01295 9.54706 3.94245 9.50256C3.81495 9.42456 3.49195 9.39056 3.43195 9.45306C3.41095 9.47106 3.88745 9.97406 4.48945 10.5701C5.49195 11.5621 5.60645 11.6641 5.90095 11.8046C6.17225 11.9397 6.47104 12.0104 6.77411 12.0113C7.07719 12.0121 7.37638 11.9431 7.64845 11.8096C8.48945 11.4086 8.95595 10.4346 8.72645 9.55156C8.61195 9.11156 8.46845 8.90056 7.89045 8.30406C7.22395 7.62156 7.06995 7.43406 6.90595 7.10606C6.72345 6.73906 6.64545 6.38206 6.64545 5.93656C6.64545 5.45456 6.69495 5.23606 6.90845 4.78556C7.11145 4.35606 7.53595 3.90556 7.95545 3.67356C8.77845 3.21506 9.86195 3.25406 10.6479 3.76756C10.8044 3.86906 11.3694 4.40056 12.0724 5.10606C13.1169 6.15306 13.2364 6.28856 13.2364 6.40806C13.2364 6.69206 13.0044 7.00706 12.7469 7.07206C12.6504 7.09806 12.6689 7.12406 13.1064 7.56956C13.3614 7.82756 13.5984 8.10606 13.6349 8.19206C13.7574 8.48656 13.7024 8.77256 13.4784 9.00706C13.3639 9.12706 13.3484 9.16856 13.3454 9.40806C13.3429 9.61906 13.3194 9.70756 13.2359 9.82756C13.17 9.92518 13.0817 10.0056 12.9784 10.0623C12.8751 10.1189 12.7597 10.15 12.6419 10.1531C12.4804 10.1531 12.4494 10.1686 12.3684 10.2911C12.1859 10.5726 11.7119 10.6711 11.4049 10.4891L11.2514 10.3981L11.1419 10.5051C10.8999 10.7371 10.5089 10.7681 10.2124 10.5781C9.97295 10.4271 9.79595 10.2161 9.79595 10.0831C9.79595 9.96606 9.96545 9.77306 10.0694 9.77306C10.1684 9.77306 10.3014 9.85106 10.4524 9.99206C10.6034 10.1351 10.7339 10.1351 10.7544 9.98956C10.7649 9.91156 10.6399 9.76306 10.1344 9.25506C9.60295 8.71856 9.50145 8.59606 9.50145 8.49206C9.50026 8.434 9.51098 8.37631 9.53295 8.32256C9.59045 8.23656 9.75195 8.17656 9.85045 8.20256C9.90245 8.21556 10.3424 8.62206 10.8244 9.10356C11.3089 9.58806 11.7334 9.98356 11.7724 9.98356C11.8794 9.98356 11.9494 9.87656 11.8999 9.78556C11.8764 9.74406 11.4674 9.32456 10.9934 8.85056C10.2514 8.11106 10.1314 7.97306 10.1314 7.86356C10.129 7.8046 10.1398 7.74583 10.1629 7.69156C10.2074 7.62656 10.3634 7.54856 10.4519 7.54856C10.4909 7.54856 10.9804 8.00406 11.5404 8.56156C12.5664 9.58256 12.6419 9.63956 12.7489 9.47056C12.7879 9.40806 12.6474 9.24906 11.7774 8.37656C10.8789 7.47556 10.7594 7.34006 10.7594 7.22306C10.7594 7.14256 10.7959 7.05906 10.8534 7.00706C11.0434 6.82756 11.1009 6.86406 12.0254 7.78306C12.9004 8.65556 12.9784 8.71256 13.0854 8.54606C13.1244 8.48356 12.9474 8.29106 11.8614 7.20206C10.6789 6.01456 10.5934 5.91806 10.5934 5.78006C10.5934 5.57156 10.7134 5.47256 10.9449 5.48856C10.9864 5.49106 11.2364 5.70206 11.4944 5.95456C11.7549 6.20706 12.0359 6.44406 12.1194 6.48056C12.2834 6.54806 12.4734 6.55856 12.5544 6.50656C12.6324 6.45706 10.4709 4.32956 10.1899 4.18106C9.94901 4.05102 9.68401 3.97166 9.41126 3.94788C9.13851 3.92409 8.86377 3.95637 8.60396 4.04274C8.34416 4.12911 8.10477 4.26774 7.90055 4.45009C7.69632 4.63244 7.53157 4.85465 7.41645 5.10306C7.28095 5.39206 7.26295 5.47806 7.24445 5.85056C7.22895 6.20206 7.24195 6.31156 7.31745 6.53556C7.45295 6.93406 7.56995 7.09806 8.17695 7.71806C8.83345 8.39006 8.95845 8.54356 9.12495 8.90306C9.59395 9.90306 9.39595 11.0596 8.62245 11.8301C8.03395 12.4211 7.23195 12.6971 6.43745 12.5881V12.5886Z" fill="white"/>
</g>
<defs>
<clipPath id="clip0_570_2">
<rect width="16" height="16" fill="white"/>
</clipPath>
</defs>
</svg>
