<svg width="37" height="26" viewBox="0 0 37 26" fill="none" xmlns="http://www.w3.org/2000/svg">
<path fill-rule="evenodd" clip-rule="evenodd" d="M7.49846 0.0586012C4.8269 0.457324 2.28102 2.15983 1.08286 4.34905C0.538226 5.3443 0.0730908 7.16491 0.0759408 8.29125C0.0804406 10.1513 0.930915 12.3421 2.19853 13.7593C2.9944 14.6491 4.59755 15.6723 5.80967 16.0639L6.80818 16.3865L6.1959 17.5849C5.51192 18.9238 4.49151 20.4449 3.45999 21.6632C3.0736 22.1196 2.73101 22.6974 2.67611 22.9848C2.54082 23.6946 2.98225 24.4629 3.73253 24.8234C4.31316 25.1023 4.32261 25.102 5.38248 24.7685C10.0074 23.3133 13.8067 19.9542 15.5067 15.8172C16.7185 12.8687 17.2224 8.75921 16.6459 6.52719C15.7119 2.91122 12.6193 0.277671 9.04972 0.0588969C8.44403 0.0216965 7.74596 0.0215484 7.49846 0.0586012ZM26.4265 0.110269C23.6702 0.59535 21.4731 2.11481 20.2748 4.36455C18.98 6.79497 18.9235 9.40653 20.1122 11.8721C21.0205 13.756 22.7545 15.2901 24.7521 15.977C25.3245 16.1739 25.8135 16.3961 25.8389 16.4708C25.9644 16.8414 24.0353 19.998 22.8004 21.4428C21.9865 22.3949 21.823 22.7125 21.823 23.3409C21.823 23.9785 22.386 24.6805 23.077 24.9051C23.7118 25.1111 25.0805 24.7166 26.9979 23.7746C32.2047 21.2165 35.2107 16.8277 35.9308 10.7326C36.3912 6.83512 35.3685 3.8864 32.8573 1.87168C31.0734 0.440348 28.522 -0.258487 26.4265 0.110269Z" fill="#6368E2"/>
</svg>
