<svg width="18" height="11" viewBox="0 0 18 11" fill="none" xmlns="http://www.w3.org/2000/svg">
<path d="M0.805398 10V0.181818H3.44531V1.89489H3.54759C3.72656 1.28551 4.02699 0.825284 4.44886 0.514205C4.87074 0.198864 5.35653 0.0411929 5.90625 0.0411929C6.04261 0.0411929 6.18963 0.0497155 6.3473 0.0667608C6.50497 0.0838068 6.64347 0.107244 6.76278 0.137073V2.55327C6.63494 2.51491 6.4581 2.48082 6.23224 2.45099C6.00639 2.42116 5.79972 2.40625 5.61222 2.40625C5.21165 2.40625 4.85369 2.49361 4.53835 2.66832C4.22727 2.83878 3.98011 3.07741 3.79688 3.38423C3.6179 3.69105 3.52841 4.04474 3.52841 4.44531V10H0.805398ZM14.4668 5.8196V0.181818H17.1898V10H14.5755V8.21662H14.4732C14.2516 8.7919 13.883 9.25426 13.3674 9.60369C12.856 9.95312 12.2317 10.1278 11.4945 10.1278C10.8382 10.1278 10.2608 9.97869 9.76225 9.6804C9.26367 9.3821 8.87376 8.9581 8.59251 8.40838C8.31552 7.85866 8.17489 7.20028 8.17063 6.43324V0.181818H10.8936V5.94744C10.8979 6.52699 11.0534 6.98509 11.3603 7.32173C11.6671 7.65838 12.0783 7.8267 12.5939 7.8267C12.9221 7.8267 13.2289 7.75213 13.5144 7.60298C13.7999 7.44957 14.03 7.22372 14.2047 6.92543C14.3837 6.62713 14.4711 6.25852 14.4668 5.8196Z" fill="white"/>
</svg>
