<svg width="24" height="18" viewBox="0 0 24 18" fill="none" xmlns="http://www.w3.org/2000/svg">
<path d="M18.561 10.1579C17.459 10.1579 16.426 9.69094 15.487 8.93094L15.715 7.85494L15.723 7.81294C15.93 6.66994 16.572 4.75294 18.562 4.75294C19.2787 4.75347 19.9659 5.03842 20.4727 5.54522C20.9795 6.05201 21.2645 6.73923 21.265 7.45594C21.2637 8.1725 20.9783 8.8593 20.4714 9.36579C19.9646 9.87229 19.2776 10.1572 18.561 10.1579ZM18.561 2.01794C16.022 2.01794 14.051 3.66694 13.251 6.38394C12.031 4.54994 11.103 2.34794 10.564 0.491943H7.828V7.60394C7.82721 8.2793 7.55864 8.92678 7.08119 9.40442C6.60373 9.88206 5.95635 10.1509 5.281 10.1519C4.60591 10.1506 3.95889 9.88165 3.48182 9.40401C3.00474 8.92637 2.73653 8.27903 2.736 7.60394V0.491943H0V7.60394C0 10.5179 2.37 12.9069 5.281 12.9069C8.194 12.9069 10.564 10.5179 10.564 7.60394V6.41394C11.093 7.52094 11.746 8.64294 12.538 9.63494L10.865 17.5079H13.662L14.875 11.7979C15.938 12.4769 17.16 12.9069 18.561 12.9069C21.561 12.9069 24 10.4549 24 7.45694C24 4.45694 21.561 2.01794 18.561 2.01794Z" fill="white"/>
</svg>
