<svg width="200" height="199" fill="none" xmlns="http://www.w3.org/2000/svg"><path d="M119.141 100c0 10.571-8.57 19.141-19.141 19.141-10.571 0-19.14-8.57-19.14-19.141 0-10.571 8.569-19.14 19.14-19.14s19.141 8.569 19.141 19.14z" fill="url(#paint0_linear)"/><path d="M144.763 66.134a17.793 17.793 0 00-4.295-6.602 17.784 17.784 0 00-6.603-4.295c-2.023-.786-5.063-1.722-10.661-1.977-6.056-.276-7.872-.335-23.204-.335-15.334 0-17.15.058-23.204.334-5.599.256-8.64 1.192-10.661 1.977a17.766 17.766 0 00-6.603 4.296 17.8 17.8 0 00-4.297 6.602c-.785 2.024-1.72 5.065-1.976 10.663-.276 6.055-.335 7.87-.335 23.204 0 15.332.06 17.148.335 23.204.255 5.599 1.19 8.638 1.976 10.662a17.8 17.8 0 004.296 6.602 17.782 17.782 0 006.602 4.295c2.023.788 5.065 1.723 10.663 1.978 6.055.276 7.869.334 23.203.334 15.335 0 17.15-.058 23.204-.334 5.598-.255 8.639-1.19 10.662-1.978a19.015 19.015 0 0010.898-10.897c.786-2.024 1.721-5.063 1.978-10.662.276-6.056.334-7.872.334-23.204 0-15.333-.058-17.15-.334-23.204-.255-5.598-1.19-8.64-1.978-10.663zM100 129.486c-16.286 0-29.488-13.201-29.488-29.486 0-16.286 13.202-29.486 29.488-29.486 16.284 0 29.486 13.2 29.486 29.486 0 16.285-13.202 29.486-29.486 29.486zm30.652-53.247a6.89 6.89 0 110-13.782 6.89 6.89 0 010 13.782z" fill="url(#paint1_linear)"/><path d="M100 0C44.78 0 0 44.78 0 100s44.78 100 100 100 100-44.78 100-100S155.22 0 100 0zm57.076 123.674c-.278 6.113-1.25 10.286-2.669 13.939a29.363 29.363 0 01-16.794 16.794c-3.652 1.419-7.826 2.389-13.937 2.669-6.124.279-8.08.346-23.674.346-15.596 0-17.551-.067-23.676-.346-6.111-.28-10.286-1.25-13.937-2.669a28.134 28.134 0 01-10.172-6.624 28.145 28.145 0 01-6.622-10.17c-1.42-3.652-2.391-7.826-2.669-13.937-.282-6.125-.348-8.082-.348-23.676 0-15.594.066-17.55.346-23.674.278-6.113 1.249-10.286 2.668-13.939a28.13 28.13 0 016.625-10.17 28.125 28.125 0 0110.17-6.624c3.653-1.419 7.826-2.39 13.939-2.669 6.123-.279 8.08-.346 23.674-.346s17.551.067 23.674.348c6.113.278 10.286 1.248 13.939 2.666a28.146 28.146 0 0110.171 6.625 28.139 28.139 0 016.623 10.17c1.42 3.653 2.391 7.826 2.67 13.939.279 6.123.345 8.08.345 23.674s-.066 17.551-.346 23.674z" fill="url(#paint2_linear)"/><defs><linearGradient id="paint0_linear" x1="80.859" y1="100" x2="119.141" y2="100" gradientUnits="userSpaceOnUse"><stop stop-color="#FF3838" stop-opacity=".5"/><stop offset="1" stop-color="#4A569D"/></linearGradient><linearGradient id="paint1_linear" x1="52.924" y1="100" x2="147.075" y2="100" gradientUnits="userSpaceOnUse"><stop stop-color="#FF3838" stop-opacity=".5"/><stop offset="1" stop-color="#4A569D"/></linearGradient><linearGradient id="paint2_linear" x1="0" y1="100" x2="200" y2="100" gradientUnits="userSpaceOnUse"><stop stop-color="#FF3838" stop-opacity=".5"/><stop offset="1" stop-color="#4A569D"/></linearGradient></defs></svg>