<svg width="200" height="200" fill="none" xmlns="http://www.w3.org/2000/svg"><g clip-path="url(#clip0)" fill="#EF7F7F" fill-opacity=".5"><path d="M99.996.004C44.771.004 0 44.777 0 100.004c0 55.225 44.771 99.999 99.996 99.999 55.229 0 100.004-44.775 100.004-99.999 0-55.227-44.775-100-100.004-100zm40.638 144.756v6.916a6.917 6.917 0 01-6.916 6.917H64.554c-7.639 0-13.833-6.194-13.833-13.833V57.732c0-7.639 6.193-13.833 13.833-13.833h69.163a6.917 6.917 0 016.916 6.916v6.917h.001v87.028zm13.832-87.028v93.944a6.917 6.917 0 01-6.916 6.917h-1.871a13.728 13.728 0 001.871-6.917V50.817c0-2.521-.688-4.88-1.871-6.916h1.871a6.917 6.917 0 016.916 6.916v6.915z"/><path d="M117.063 110.346s-2.606-3.128-5.492-.97c-2.151 1.608-6.015 5.185-6.944 6.053 0 0-6.46-3.445-10.283-6.59-5.662-4.657-9.45-10.405-11.434-13.675l-1.482-2.794c.517-.557 4.473-4.793 6.185-7.093 2.154-2.884-.968-5.49-.968-5.49s-8.789-8.79-10.79-10.533c-2.002-1.748-4.307-.778-4.307-.778-4.21 2.722-8.573 5.086-8.832 16.458-.009 10.646 8.072 21.626 16.81 30.126 8.754 9.601 20.775 19.222 32.393 19.212 11.37-.256 13.732-4.621 16.452-8.831 0 0 .973-2.303-.773-4.305-1.747-2.005-10.535-10.79-10.535-10.79z"/></g><defs><clipPath id="clip0"><path fill="#fff" d="M0 0h200v200H0z"/></clipPath></defs></svg>