<svg width="200" height="200" fill="none" xmlns="http://www.w3.org/2000/svg"><path d="M100 200c55.242 0 100-44.758 100-100S155.242 0 100 0 0 44.758 0 100s44.758 100 100 100zM45.758 97.833l96.417-37.175c4.475-1.616 8.383 1.092 6.933 7.859l.009-.009L132.7 145.85c-1.217 5.483-4.475 6.817-9.033 4.233l-25-18.425-12.059 11.617c-1.333 1.333-2.458 2.458-5.041 2.458l1.775-25.441 46.333-41.859c2.017-1.775-.45-2.775-3.108-1.008l-57.259 36.05-24.683-7.7c-5.358-1.7-5.475-5.358 1.133-7.942z" fill="#08C" fill-opacity=".5"/></svg>