<svg width="200" height="200" fill="none" xmlns="http://www.w3.org/2000/svg"><path d="M100 0C44.773 0 0 44.771 0 100s44.773 100 100 100 100-44.771 100-100S155.227 0 100 0zm50.725 110.815c4.661 4.553 9.592 8.837 13.776 13.86 1.854 2.222 3.601 4.52 4.931 7.104 1.899 3.685.184 7.726-3.114 7.945l-20.487-.004c-5.291.438-9.502-1.696-13.051-5.314-2.834-2.883-5.463-5.962-8.193-8.943-1.115-1.224-2.289-2.376-3.689-3.282-2.793-1.817-5.219-1.26-6.819 1.657-1.631 2.969-2.003 6.259-2.159 9.564-.223 4.83-1.68 6.093-6.527 6.32-10.357.485-20.184-1.087-29.317-6.308-8.058-4.606-14.294-11.106-19.728-18.466C45.766 100.602 37.66 84.855 30.38 68.657c-1.64-3.648-.44-5.6 3.584-5.676 6.687-.129 13.373-.113 20.06-.006 2.72.043 4.521 1.6 5.567 4.168 3.613 8.89 8.043 17.348 13.594 25.192 1.479 2.09 2.989 4.172 5.14 5.648 2.373 1.628 4.181 1.09 5.3-1.56.717-1.683 1.026-3.484 1.181-5.288.532-6.181.596-12.36-.325-18.517-.573-3.853-2.74-6.34-6.58-7.07-1.956-.37-1.67-1.094-.718-2.21 1.65-1.932 3.198-3.127 6.29-3.127l23.146-.004c3.648.716 4.466 2.353 4.962 6.027l.02 25.723c-.043 1.422.714 5.637 3.268 6.568 2.046.675 3.396-.966 4.619-2.261 5.551-5.89 9.506-12.843 13.048-20.039 1.563-3.173 2.912-6.457 4.221-9.747.974-2.433 2.488-3.63 5.234-3.589l22.289.027c.657 0 1.324.006 1.975.118 3.756.643 4.785 2.26 3.623 5.923-1.829 5.758-5.383 10.554-8.857 15.362-3.724 5.148-7.695 10.116-11.382 15.286-3.388 4.726-3.12 7.106 1.086 11.21z" fill="#597DA3" fill-opacity=".5"/></svg>