<svg width="200" height="200" fill="none" xmlns="http://www.w3.org/2000/svg"><path d="M100.025 0h-.05C44.838 0 0 44.85 0 100c0 21.875 7.05 42.15 19.038 58.613L6.575 195.762l38.438-12.287C60.825 193.95 79.688 200 100.025 200 155.162 200 200 155.137 200 100c0-55.138-44.838-100-99.975-100zm58.187 141.212c-2.412 6.813-11.987 12.463-19.625 14.113-5.224 1.113-12.05 2-35.025-7.525-29.387-12.175-48.312-42.038-49.787-43.975C52.362 101.887 41.9 88.012 41.9 73.662s7.288-21.337 10.225-24.337c2.413-2.463 6.4-3.588 10.225-3.588 1.237 0 2.35.063 3.35.113 2.938.125 4.412.3 6.35 4.938 2.413 5.812 8.288 20.162 8.987 21.637.713 1.475 1.425 3.475.425 5.413-.937 2-1.762 2.887-3.237 4.587-1.475 1.7-2.875 3-4.35 4.825-1.35 1.588-2.875 3.287-1.175 6.225 1.7 2.875 7.575 12.462 16.225 20.162 11.163 9.938 20.212 13.113 23.45 14.463 2.412 1 5.287.763 7.05-1.112 2.237-2.413 5-6.413 7.812-10.35 2.001-2.825 4.525-3.176 7.176-2.176 2.7.938 16.987 8 19.924 9.463 2.938 1.475 4.875 2.175 5.588 3.413.7 1.237.7 7.049-1.713 13.874z" fill="#4AC959" fill-opacity=".5"/></svg>